<svg width="135" height="135" viewBox="0 0 135 135" fill="none" xmlns="http://www.w3.org/2000/svg">
<path opacity="0.15" d="M29.9368 123.149C30.0054 123.687 31.2016 124.075 33.4571 124.291C35.7127 124.508 38.9834 124.549 43.0824 124.412C47.1815 124.275 52.0287 123.962 57.3473 123.492C62.6659 123.022 68.3517 122.404 74.0801 121.672C79.8085 120.941 85.4673 120.111 90.7334 119.23C95.9995 118.349 100.77 117.433 104.772 116.536C108.774 115.639 111.929 114.778 114.058 114.002C116.187 113.225 117.247 112.549 117.179 112.012C117.11 111.474 115.914 111.086 113.658 110.87C111.403 110.653 108.132 110.612 104.033 110.749C99.934 110.887 95.0867 111.199 89.7682 111.669C84.4496 112.139 78.7638 112.757 73.0354 113.489C67.307 114.22 61.6482 115.05 56.3821 115.931C51.116 116.813 46.3458 117.728 42.3437 118.625C38.3416 119.522 35.1861 120.383 33.0573 121.16C30.9285 121.936 29.8682 122.612 29.9368 123.149Z" fill="#45413C"/>
<path d="M32.6868 101.252L109.017 91.5072L110.41 102.419C110.687 104.589 110.091 106.781 108.752 108.511C107.413 110.242 105.442 111.37 103.271 111.647L43.3081 119.302C41.1377 119.579 38.9461 118.983 37.2154 117.644C35.4848 116.305 34.3569 114.334 34.0798 112.163L32.6868 101.252Z" fill="#BDBEC0" stroke="#45413C" stroke-width="2" stroke-linecap="round" stroke-linejoin="round"/>
<path d="M31.9902 95.7955L108.321 86.0509L109.714 96.9623C109.991 99.1327 109.394 101.324 108.056 103.055C106.717 104.786 104.745 105.914 102.575 106.191L42.6115 113.846C40.4411 114.123 38.2495 113.526 36.5189 112.188C34.7882 110.849 33.6603 108.877 33.3832 106.707L31.9902 95.7955Z" fill="#BDBEC0" stroke="#45413C" stroke-width="2" stroke-linecap="round" stroke-linejoin="round"/>
<path d="M26.4172 52.1484L102.748 42.4038L109.016 91.5053C109.293 93.6757 108.697 95.8673 107.358 97.5979C106.019 99.3286 104.048 100.457 101.877 100.734L41.914 108.389C39.7436 108.666 37.552 108.069 35.8213 106.731C34.0907 105.392 32.9627 103.42 32.6857 101.25L26.4172 52.1484Z" fill="white" stroke="#45413C" stroke-width="2" stroke-linecap="round" stroke-linejoin="round"/>
<path d="M31.6469 27.9666L91.6103 20.3114C93.7807 20.0343 95.9723 20.6308 97.703 21.9696C99.4336 23.3084 100.562 25.2798 100.839 27.4502L102.738 42.3295L26.4077 52.0741L24.5176 37.2693C24.3698 36.1896 24.4373 35.0914 24.7163 34.0379C24.9954 32.9845 25.4803 31.9968 26.1432 31.1318C26.806 30.2669 27.6337 29.5418 28.5784 28.9986C29.523 28.4553 30.566 28.1045 31.6469 27.9666Z" fill="#FF6242"/>
<path d="M91.6103 20.3113L31.647 27.9664C30.5646 28.1012 29.5199 28.4499 28.5736 28.9922C27.6272 29.5345 26.7982 30.2596 26.1348 31.1253C25.4713 31.991 24.9867 32.98 24.7091 34.0348C24.4314 35.0896 24.3663 36.189 24.5176 37.2692L25.3882 44.0888C25.2477 43.0136 25.321 41.9213 25.6042 40.8746C25.8874 39.8278 26.3747 38.8475 27.0382 37.9898C27.7016 37.1321 28.5282 36.4141 29.4702 35.8771C30.4122 35.34 31.4511 34.9945 32.5271 34.8605L92.4904 27.2053C93.5656 27.0647 94.658 27.1381 95.7047 27.4213C96.7514 27.7045 97.7318 28.1918 98.5894 28.8553C99.4471 29.5187 100.165 30.3452 100.702 31.2872C101.239 32.2292 101.585 33.2681 101.719 34.3442L100.848 27.5245C100.723 26.441 100.384 25.3932 99.8502 24.442C99.3165 23.4908 98.5989 22.6552 97.7393 21.984C96.8796 21.3127 95.895 20.8191 94.8428 20.532C93.7906 20.2448 92.6918 20.1698 91.6103 20.3113Z" fill="#FF866E"/>
<path d="M31.6469 27.9666L91.6103 20.3114C93.7807 20.0343 95.9723 20.6308 97.7029 21.9696C99.4336 23.3084 100.562 25.2798 100.839 27.4502L102.738 42.3295L26.4077 52.0741L24.5176 37.2693C24.3698 36.1896 24.4373 35.0914 24.7163 34.0379C24.9954 32.9845 25.4803 31.9968 26.1432 31.1318C26.806 30.2669 27.6337 29.5418 28.5784 28.9986C29.523 28.4553 30.566 28.1045 31.6469 27.9666V27.9666Z" stroke="#45413C" stroke-width="2" stroke-linecap="round" stroke-linejoin="round"/>
<path d="M40.6764 33.7446C39.9541 33.8302 39.227 33.6288 38.6517 33.1838C38.0764 32.7387 37.6988 32.0856 37.6002 31.365L36.5492 23.1318C36.4568 22.4083 36.6556 21.6778 37.1019 21.1009C37.5481 20.524 38.2053 20.148 38.9288 20.0557C39.6522 19.9633 40.3828 20.1621 40.9597 20.6084C41.5365 21.0547 41.9125 21.7118 42.0049 22.4353L43.0496 30.6189C43.1025 30.9804 43.0828 31.3489 42.9916 31.7027C42.9005 32.0565 42.7397 32.3886 42.5188 32.6796C42.2978 32.9706 42.0211 33.2147 41.7047 33.3975C41.3884 33.5804 41.0388 33.6984 40.6764 33.7446Z" fill="#E8F4FA"/>
<path d="M62.4992 30.9585C61.7758 31.0509 61.0452 30.8521 60.4684 30.4058C59.8915 29.9595 59.5155 29.3024 59.4231 28.5789L58.372 20.3457C58.2938 19.6292 58.5 18.9107 58.9462 18.3446C59.3924 17.7786 60.043 17.4104 60.758 17.3192C61.4729 17.2278 62.1952 17.4208 62.7693 17.8566C63.3434 18.2923 63.7235 18.9361 63.8278 19.6492L64.8725 27.8328C64.9254 28.1944 64.9056 28.5628 64.8145 28.9166C64.7233 29.2705 64.5626 29.6026 64.3416 29.8936C64.1207 30.1846 63.844 30.4286 63.5276 30.6115C63.2113 30.7943 62.8617 30.9123 62.4992 30.9585Z" fill="#E8F4FA"/>
<path d="M84.3221 28.1726C83.5986 28.2649 82.8681 28.0661 82.2912 27.6198C81.7143 27.1736 81.3384 26.5164 81.246 25.7929L80.1949 17.5598C80.1026 16.8363 80.3014 16.1058 80.7477 15.5289C81.1939 14.952 81.8511 14.576 82.5745 14.4837C83.298 14.3913 84.0285 14.5901 84.6054 15.0364C85.1823 15.4826 85.5583 16.1398 85.6507 16.8633L86.6954 25.0469C86.7448 25.4079 86.7226 25.7752 86.6301 26.1277C86.5376 26.4802 86.3765 26.811 86.1562 27.1013C85.9358 27.3915 85.6604 27.6355 85.3457 27.8193C85.031 28.0031 84.6832 28.1232 84.3221 28.1726Z" fill="#E8F4FA"/>
<path d="M38.9351 20.1052C38.2201 20.1964 37.5695 20.5646 37.1233 21.1306C36.6771 21.6967 36.4709 22.4153 36.5492 23.1318L37.0779 27.2731C36.9855 26.5497 37.1843 25.8191 37.6306 25.2423C38.0769 24.6654 38.734 24.2894 39.4575 24.197C40.181 24.1047 40.9115 24.3035 41.4884 24.7498C42.0653 25.196 42.4412 25.8532 42.5336 26.5766L42.0049 22.4353C41.9006 21.7221 41.5205 21.0783 40.9464 20.6426C40.3723 20.2068 39.6501 20.0138 38.9351 20.1052Z" fill="white"/>
<path d="M60.758 17.3192C60.043 17.4104 59.3924 17.7786 58.9462 18.3446C58.5 18.9107 58.2938 19.6292 58.372 20.3457L58.9008 24.4871C58.8084 23.7637 59.0072 23.0331 59.4535 22.4562C59.8997 21.8794 60.5569 21.5034 61.2804 21.411C62.0038 21.3187 62.7344 21.5175 63.3113 21.9637C63.8881 22.41 64.2641 23.0672 64.3565 23.7906L63.8278 19.6492C63.7235 18.9361 63.3434 18.2923 62.7693 17.8566C62.1952 17.4208 61.4729 17.2278 60.758 17.3192Z" fill="white"/>
<path d="M82.5809 14.5332C81.8659 14.6244 81.2153 14.9926 80.7691 15.5586C80.3228 16.1246 80.1167 16.8432 80.1949 17.5597L80.7236 21.7011C80.6313 20.9776 80.8301 20.2471 81.2764 19.6702C81.7226 19.0933 82.3798 18.7174 83.1032 18.625C83.8267 18.5326 84.5572 18.7315 85.1341 19.1777C85.711 19.624 86.087 20.2811 86.1794 21.0046L85.6507 16.8632C85.5464 16.15 85.1663 15.5063 84.5922 15.0705C84.0181 14.6348 83.2958 14.4418 82.5809 14.5332Z" fill="white"/>
<path d="M40.6764 33.7446C39.9541 33.8302 39.227 33.6288 38.6517 33.1838C38.0764 32.7387 37.6988 32.0856 37.6002 31.365L36.5492 23.1318C36.4568 22.4083 36.6556 21.6778 37.1019 21.1009C37.5481 20.524 38.2053 20.148 38.9288 20.0557V20.0557C39.6522 19.9633 40.3828 20.1621 40.9597 20.6084C41.5365 21.0547 41.9125 21.7118 42.0049 22.4353L43.0496 30.6189C43.1025 30.9804 43.0828 31.3489 42.9916 31.7027C42.9005 32.0565 42.7397 32.3886 42.5188 32.6796C42.2978 32.9706 42.0211 33.2147 41.7047 33.3975C41.3884 33.5804 41.0388 33.6984 40.6764 33.7446V33.7446Z" stroke="#45413C" stroke-width="2" stroke-linecap="round" stroke-linejoin="round"/>
<path d="M62.4992 30.9585C61.7758 31.0509 61.0452 30.8521 60.4684 30.4058C59.8915 29.9595 59.5155 29.3024 59.4231 28.5789L58.372 20.3457C58.2938 19.6292 58.5 18.9107 58.9462 18.3446C59.3924 17.7786 60.043 17.4104 60.758 17.3192V17.3192C61.4729 17.2278 62.1952 17.4208 62.7693 17.8566C63.3434 18.2923 63.7235 18.9361 63.8278 19.6492L64.8725 27.8328C64.9254 28.1944 64.9056 28.5628 64.8145 28.9166C64.7233 29.2705 64.5626 29.6026 64.3416 29.8936C64.1207 30.1846 63.844 30.4286 63.5276 30.6115C63.2113 30.7943 62.8617 30.9123 62.4992 30.9585Z" stroke="#45413C" stroke-width="2" stroke-linecap="round" stroke-linejoin="round"/>
<path d="M84.3221 28.1726C83.5986 28.2649 82.8681 28.0661 82.2912 27.6198C81.7143 27.1736 81.3384 26.5164 81.246 25.7929L80.1949 17.5598C80.1026 16.8363 80.3014 16.1058 80.7477 15.5289C81.1939 14.952 81.8511 14.576 82.5745 14.4837C83.298 14.3913 84.0285 14.5901 84.6054 15.0364C85.1823 15.4826 85.5583 16.1398 85.6507 16.8633L86.6954 25.0469C86.7448 25.4079 86.7226 25.7752 86.6301 26.1277C86.5376 26.4802 86.3765 26.811 86.1562 27.1013C85.9358 27.3915 85.6604 27.6355 85.3457 27.8193C85.031 28.0031 84.6832 28.1232 84.3221 28.1726Z" stroke="#45413C" stroke-width="2" stroke-linecap="round" stroke-linejoin="round"/>
<path d="M54.6863 89.3935L51.837 67.0746L49.2083 67.4102C48.7873 67.497 48.3519 67.4856 47.9359 67.377C47.52 67.2684 47.1346 67.0654 46.8097 66.7839C46.2204 66.2385 45.8483 65.4982 45.7623 64.6998C45.6802 64.268 45.6879 63.824 45.785 63.3953C45.882 62.9666 46.0663 62.5626 46.3264 62.2083C46.5695 61.8655 46.8849 61.5801 47.2503 61.3723C47.6157 61.1646 48.0222 61.0395 48.4411 61.0058L54.7896 60.1953C55.1954 60.1243 55.6117 60.1398 56.0112 60.2408C56.4106 60.3418 56.7842 60.5261 57.1075 60.7815C57.7325 61.355 58.1206 62.1415 58.1955 62.9865L61.4564 88.5292C61.6002 89.4446 61.3752 90.3796 60.8306 91.1294C60.5396 91.4816 60.1795 91.7707 59.7727 91.9786C59.3658 92.1866 58.9207 92.3091 58.4647 92.3387C58.0138 92.4246 57.55 92.4156 57.1028 92.3121C56.6556 92.2086 56.235 92.013 55.8677 91.7377C55.5252 91.4448 55.2444 91.0867 55.0416 90.6842C54.8388 90.2818 54.718 89.843 54.6863 89.3935Z" fill="#45413C"/>
<path d="M68.5614 86.3383L77.0419 63.7323L65.5601 65.1982C65.1116 65.2903 64.6486 65.2865 64.2016 65.1873C63.7546 65.088 63.3336 64.8953 62.9663 64.622C62.4564 64.2291 62.0802 63.6883 61.8893 63.0736C61.6983 62.4588 61.7019 61.8001 61.8995 61.1875C62.0971 60.5748 62.479 60.0381 62.9931 59.6508C63.5072 59.2634 64.1284 59.0443 64.7718 59.0233L80.9406 56.9591C81.4045 56.8537 81.8875 56.8672 82.3448 56.9982C82.8021 57.1293 83.2189 57.3737 83.5566 57.7089C84.1383 58.2533 84.523 58.9753 84.6504 59.7619C84.7074 60.206 84.6705 60.6572 84.5422 61.0862C84.3966 61.6808 84.2191 62.2672 84.0104 62.8427L75.7783 86.8031C75.5401 87.578 75.2403 88.3326 74.8819 89.0598C74.6784 89.493 74.3717 89.8697 73.9886 90.1567C73.3168 90.532 72.5543 90.7143 71.7854 90.6835C71.0165 90.6527 70.2711 90.4099 69.6314 89.9821C69.2932 89.7518 69.0048 89.4558 68.7833 89.1117C68.5619 88.7676 68.4119 88.3825 68.3424 87.9792C68.2851 87.4226 68.3601 86.8604 68.5614 86.3383Z" fill="#45413C"/>
</svg>
