<svg width="480" height="480" viewBox="0 0 480 480" fill="none" xmlns="http://www.w3.org/2000/svg">
<path d="M340.035 133.728C338.355 134.208 284.165 172.918 279.682 176.318C275.199 179.719 266.376 191.731 267.523 192.828C269.299 194.527 284.487 189.029 286.519 187.85C288.552 186.672 345.185 146.683 347.959 144.766C350.734 142.848 341.727 133.25 340.035 133.728Z" fill="#FF7801"/>
<path d="M240.175 259.241L240.175 259.241C227.758 259.953 215.951 255.354 203.157 249.397C200.565 248.191 197.93 246.927 195.236 245.635C184.639 240.553 173.118 235.028 159.664 230.785C152.324 232.013 141.947 232.266 132.851 231.123C128.228 230.543 123.86 229.592 120.362 228.185C117.368 226.981 114.779 225.349 113.352 223.117C88.3402 226.995 65.2957 236.817 47.6337 248.352C38.6826 254.198 31.1393 260.467 25.4333 266.598C19.7109 272.747 15.9095 278.678 14.3219 283.838L14.3217 283.838C13.0029 288.118 13.3018 293.475 14.8569 299.494C16.4064 305.492 19.1663 312.008 22.6016 318.52C29.4729 331.545 38.9503 344.379 46.4734 352.752C47.6846 354.101 49.9683 353.538 50.3427 351.503C56.5535 317.753 65.0784 282.31 78.1258 250.751L240.175 259.241ZM240.175 259.241C241.837 259.145 243.781 258.462 245.837 257.456C247.923 256.435 250.256 255.015 252.729 253.316C257.678 249.916 263.295 245.327 268.797 240.375C279.76 230.506 290.478 218.998 294.592 212.345C295.35 211.12 296.585 210.474 297.675 210.641C307.931 212.21 317.983 215.97 324.82 220.371C325.624 220.889 326.001 221.98 325.649 223.026C299.641 300.255 267.509 316.392 252.233 320.578C239.392 324.096 221.726 324.584 204.361 323.79C187.035 322.997 170.166 320.937 158.989 319.436L158.988 319.436C157.526 319.24 156.098 319.913 155.586 321.19C155.321 321.851 155.335 322.668 155.822 323.364C156.287 324.029 157.021 324.355 157.747 324.474C168.413 326.229 179.151 327.538 189.914 328.484C191.275 328.604 192.291 329.768 192.225 331.114C190.854 358.914 189.433 392.561 189.05 406.51C189.018 407.666 188.242 408.587 187.194 408.789C172.461 411.642 145.656 412.188 118.925 410.197C105.579 409.203 92.2977 407.58 80.6003 405.31C68.8782 403.035 58.8442 400.129 51.9352 396.61C51.1288 396.199 50.6537 395.288 50.7853 394.277C57.0429 346.23 67.7215 298.862 82.6861 252.775L82.6864 252.774M240.175 259.241L82.6864 252.774M82.6864 252.774C83.0972 251.507 82.8163 250.002 81.6344 249.278M82.6864 252.774L81.6344 249.278M81.6344 249.278C81.011 248.896 80.2219 248.824 79.5007 249.176M81.6344 249.278L79.5007 249.176M79.5007 249.176C78.826 249.505 78.3894 250.113 78.1261 250.75L79.5007 249.176Z" fill="#FF7801" stroke="#4D2114" stroke-width="3"/>
<path d="M227.172 88.6847C240.249 97.8407 251.977 108.786 262.013 121.2C263.604 123.089 265.373 121.603 266.573 120.06C282.523 99.4487 291.053 87.3527 312.374 69.6599C314.054 68.2727 312.154 66.2423 310.361 67.4999C295.747 77.7095 273.278 99.2255 263.686 114.422C253.437 103.319 241.73 93.6566 228.886 85.6991C226.426 84.1967 224.784 87.0959 227.172 88.6847Z" fill="#FF7801"/>
<path d="M241.534 86.4239C245.674 86.9039 275.727 85.6343 280.414 85.5503C282.752 85.5071 282.924 81.7727 280.548 81.8639C275.818 82.0439 245.508 82.7447 241.26 83.4983C239.52 83.8055 239.976 86.2391 241.534 86.4239Z" fill="#FF7801"/>
<path d="M231.617 177.821C229.531 176.88 227.817 179.719 229.718 180.898C240.352 187.525 250.509 194.889 260.114 202.934C263.013 205.356 266.58 200.743 263.714 198.3C254.028 190.003 243.223 183.109 231.617 177.821Z" fill="#FF7801"/>
<path d="M293.417 129.415C293.52 120.466 292.647 110.873 292.599 101.868C292.599 99.588 289.426 99.9696 289.445 102.247C289.523 111.785 289.603 121.315 289.685 130.838C282.523 130.838 250.21 131.714 242.837 133.099C242.059 124.913 241.687 116.662 240.483 108.518C240.421 108.196 240.243 107.907 239.982 107.708C239.721 107.509 239.396 107.413 239.069 107.439C238.742 107.465 238.436 107.611 238.209 107.849C237.983 108.086 237.852 108.399 237.843 108.727C238.224 116.724 238.563 124.894 239.175 132.89C239.501 137.146 239.515 136.862 243.713 136.558C258.247 135.499 273.046 134.638 287.616 134.506C291.821 134.465 293.355 134.753 293.417 129.415Z" fill="#FF7801"/>
<path d="M275.349 162.11C267.312 162.214 258.549 162.338 250.557 163.248C242.217 164.208 242.805 164.909 243.396 172.426C243.532 174.402 243.785 176.369 244.154 178.315C244.198 178.68 244.374 179.016 244.649 179.259C244.924 179.503 245.278 179.638 245.646 179.638C246.013 179.638 246.368 179.503 246.643 179.259C246.917 179.016 247.093 178.68 247.137 178.315C247.137 176.947 246.473 167.657 246.657 167.429C246.842 167.201 272.078 165.43 274.773 165.245C277.097 165.084 277.665 162.079 275.349 162.11Z" fill="#FF7801"/>
<path d="M248.448 198.869C248.366 198.505 248.156 198.183 247.855 197.962C247.554 197.742 247.183 197.639 246.812 197.671C246.44 197.704 246.093 197.87 245.835 198.139C245.577 198.409 245.426 198.763 245.409 199.135C245.515 204.111 245.877 209.077 246.492 214.015C246.457 214.482 246.608 214.944 246.913 215.3C247.218 215.655 247.652 215.875 248.119 215.911C248.359 215.93 266.745 215.458 280.192 214.186C283.632 213.862 281.541 210.782 279.528 210.938C270.028 211.658 259.392 212.04 249.854 212.323C249.475 207.703 249.151 203.297 248.448 198.869Z" fill="#FF7801"/>
<path d="M166.836 155.194C162.202 154.911 159.447 160.627 161.935 161.141C163.227 161.407 163.644 158.177 166.627 158.196C167.026 158.224 167.418 158.092 167.719 157.83C168.021 157.568 168.205 157.198 168.233 156.799C168.261 156.401 168.129 156.008 167.867 155.707C167.605 155.406 167.234 155.221 166.836 155.194Z" fill="#4D2114"/>
<path d="M173.314 150.065C172.622 148.673 171.394 149.806 171.718 151.128C173.755 159.267 176.066 163.8 177.797 172.843C178.728 177.706 174.286 174.742 174.149 178.543C174.061 181.36 173.776 184.167 173.294 186.943C171.368 186.605 169.606 185.644 168.278 184.207C167.424 183.087 165.943 184.095 166.646 185.595C167.277 186.761 168.18 187.759 169.278 188.503C170.375 189.247 171.636 189.715 172.954 189.869C171.415 202.109 164.947 202.81 154.601 200.669C152.7 200.278 150.797 199.601 148.711 199.32C147.703 199.186 145.111 201.221 151.884 203.119C151.884 206.407 152.604 223.183 153.538 226.26C153.934 227.551 155.971 227.398 155.856 225.936C155.256 218.335 155.018 211.231 154.896 203.803C175.536 208.023 175.205 195.389 176.856 179.203C181.111 178.594 181.303 175.073 180.655 171.699C179.203 164.187 176.733 156.909 173.314 150.065Z" fill="#4D2114"/>
<path d="M114.898 115.243C109.378 95.2752 87.9964 74.6064 59.218 89.616C30.4396 104.626 34.258 145.015 49.738 162.11C59.4628 172.846 68.7364 185.515 67.3108 195.355C65.8852 205.195 81.0316 196.646 73.1428 164.407C66.838 138.646 87.4276 117.218 103.536 127.306C106.49 122.574 110.352 118.474 114.898 115.243Z" fill="#4D2114"/>
<path d="M143.621 162.775C147.919 165.326 174.636 143.772 172.992 138.818C159.792 99.0816 110.702 109.387 102.833 137.81C94.0031 169.704 120.29 194.719 121.963 194.501C124.394 194.182 132.043 189.276 134.882 179.719C136.133 180.451 137.555 180.837 139.004 180.837C140.453 180.837 141.876 180.451 143.126 179.719C144.758 178.79 143.58 176.938 141.854 177.559C137.65 179.059 133.116 175.658 133.572 168.403C133.582 167.234 133.901 166.088 134.497 165.082C135.093 164.076 135.944 163.246 136.964 162.674C137.984 162.103 139.137 161.811 140.306 161.829C141.475 161.847 142.618 162.173 143.621 162.775Z" fill="#4D2114"/>
<path d="M120.615 198.204C119.056 205.394 118.222 212.723 118.126 220.08C118.156 220.385 118.293 220.669 118.513 220.882C118.733 221.095 119.021 221.223 119.327 221.244C119.632 221.264 119.935 221.176 120.182 220.994C120.428 220.812 120.602 220.548 120.672 220.25C122.127 213.249 122.352 205.699 123.636 198.422C123.941 196.685 120.941 196.514 120.615 198.204Z" fill="#4D2114"/>
<path d="M169.68 164.88C168.586 161.074 164.981 160.908 166.394 166.267C167.681 171.12 170.834 168.883 169.68 164.88Z" fill="#4D2114"/>
<path d="M287.014 164.369C288.159 163.217 296.614 162.559 297.255 162.355C298.712 161.875 298.376 159.732 297.159 159.259C294.708 158.299 287.775 159.677 285.456 160.939C283.138 162.202 282.749 166.433 280.688 170.875C279.629 173.155 278.211 175.253 277.287 177.581C276.838 178.716 278.208 179.501 279.188 178.721C283.86 175.039 286.956 164.427 287.014 164.369Z" fill="#4D2114"/>
<path d="M281.333 184.26C281.013 184.244 280.699 184.342 280.445 184.536C280.191 184.731 280.014 185.009 279.946 185.321C279.878 185.634 279.922 185.96 280.072 186.242C280.222 186.525 280.467 186.745 280.764 186.864C297.298 192.922 296.282 203.945 298.584 206.563C299.081 207.13 302.333 208.339 301.529 203.683C299.906 194.29 290.926 185.016 281.333 184.26Z" fill="#4D2114"/>
<path d="M315.188 173.165C321.615 188.832 321.932 192.698 321.514 209.645C321.466 211.545 324.315 212.309 324.819 210.365C327.74 199.113 324.32 181.085 317.58 171.59C316.587 170.189 314.595 171.722 315.188 173.165Z" fill="#4D2114"/>
<path d="M304.663 178.162C304.286 182.419 301.598 182.386 298.963 183.178C295.67 184.167 297.537 185.076 298.963 185.419C300.059 185.729 301.216 185.757 302.326 185.502C303.437 185.247 304.465 184.716 305.317 183.959C306.168 183.203 306.816 182.244 307.199 181.171C307.583 180.098 307.69 178.946 307.512 177.821C307.113 175.944 304.824 176.34 304.663 178.162Z" fill="#4D2114"/>
<path d="M422.58 118.927C426.228 118.726 425.162 113.139 421.553 113.343C395.472 114.821 368.945 113.247 343.663 114.826C340.783 115.003 341.289 119.364 343.903 119.669C358.977 121.426 407.858 119.76 422.58 118.927Z" fill="#4D2114"/>
<path d="M464.981 84.0865C433.906 83.0593 368.381 83.3665 339.505 86.4049C337.148 86.6449 336.502 90.9817 339.334 90.9649C372.389 90.7585 426.884 88.5433 465.514 89.7649C469.2 89.8849 468.593 84.2065 464.981 84.0865Z" fill="#4D2114"/>
<path d="M461.126 163.572C423.489 166.692 378.381 162.807 344.083 166.954C341.366 167.283 342.048 171.907 344.841 171.754C375.463 169.923 420.83 171.238 461.277 169.323C464.925 169.138 464.829 163.265 461.126 163.572Z" fill="#4D2114"/>
<path d="M417.793 190.245C400.198 189.194 361.258 189.309 346.513 190.034C343.757 190.171 343.359 194.817 346.227 194.993C368.189 196.341 392.163 196.272 417.466 195.753C420.452 195.693 421.078 190.44 417.793 190.245Z" fill="#4D2114"/>
</svg>
